<svg aria-hidden="true" style="position: absolute; width: 0; height: 0; overflow: hidden;" version="1.1" xmlns="http://www.w3.org/2000/svg" xmlns:xlink="http://www.w3.org/1999/xlink">
<defs>
<symbol id="icon-email" viewBox="0 0 32 32">
<path d="M29 4h-26c-1.654 0-3 1.346-3 3v18c0 1.654 1.346 3 3 3h26c1.654 0 3-1.346 3-3v-18c0-1.654-1.346-3-3-3zM29 6q0.206 0 0.384 0.078l-13.384 11.6-13.384-11.6c0.113-0.049 0.245-0.078 0.384-0.078h0zM29 26h-26c-0.552 0-1-0.448-1-1v0-16.81l13.344 11.566c0.175 0.152 0.404 0.245 0.656 0.245s0.481-0.093 0.657-0.246l-0.001 0.001 13.344-11.566v16.81c0 0.552-0.448 1-1 1v0z"></path>
</symbol>
<symbol id="icon-number" viewBox="0 0 32 32">
<path d="M23 0h-14c-1.654 0-3 1.346-3 3v26c0 1.654 1.346 3 3 3h14c1.654 0 3-1.346 3-3v-26c0-1.654-1.346-3-3-3zM9 2h14c0.552 0 1 0.448 1 1v0 21h-16v-21c0-0.552 0.448-1 1-1v0zM23 30h-14c-0.552 0-1-0.448-1-1v0-3h16v3c0 0.552-0.448 1-1 1v0z"></path>
<path d="M10.708 27.478c0.18 0.163 0.293 0.399 0.293 0.66s-0.113 0.497-0.292 0.659l-0.001 0.001c-0.186 0.17-0.435 0.275-0.708 0.275s-0.522-0.104-0.709-0.275l0.001 0.001c-0.18-0.163-0.293-0.399-0.293-0.66s0.113-0.497 0.292-0.659l0.001-0.001c0.186-0.17 0.435-0.275 0.708-0.275s0.522 0.104 0.709 0.275l-0.001-0.001z"></path>
</symbol>
<symbol id="icon-in" viewBox="0 0 32 32">
<path d="M31.992 32h0.008v-11.738c0-5.741-1.237-10.163-7.947-10.163-3.227 0-5.392 1.77-6.277 3.45h-0.093v-2.914h-6.365v21.363h6.627v-10.578c0-2.786 0.528-5.48 3.978-5.48 3.398 0 3.45 3.179 3.45 5.658v10.402zM0.528 10.635h6.635v21.365h-6.635zM3.843 0c-0.001 0-0.002 0-0.003 0-2.121 0-3.84 1.719-3.84 3.84 0 0.001 0 0.002 0 0.003v-0c0 2.122 1.722 3.878 3.843 3.878s3.842-1.757 3.842-3.878c-0.001-2.122-1.72-3.841-3.841-3.843h-0z"></path>
</symbol>
<symbol id="icon-facebook" viewBox="0 0 16 32">
<path d="M13.080 5.312h2.922v-5.088c-1.243-0.143-2.684-0.224-4.143-0.224-0.040 0-0.080 0-0.121 0h0.006c-4.211 0-7.096 2.65-7.096 7.52v4.48h-4.648v5.688h4.648v14.312h5.699v-14.31h4.459l0.709-5.69h-5.17v-3.92c0-1.643 0.443-2.768 2.734-2.768z"></path>
</symbol>
<symbol id="icon-twitter" viewBox="0 0 32 32">
<path d="M32 5.478c-1.1 0.492-2.376 0.856-3.712 1.028l-0.069 0.007c1.36-0.817 2.381-2.078 2.873-3.579l0.013-0.046c-1.197 0.723-2.591 1.274-4.076 1.575l-0.084 0.014c-1.2-1.279-2.9-2.076-4.787-2.076-3.622 0-6.558 2.936-6.558 6.558 0 0.001 0 0.003 0 0.004v-0c0 0.518 0.043 1.019 0.152 1.494-5.454-0.266-10.28-2.88-13.522-6.861-0.564 0.95-0.899 2.093-0.902 3.314v0.001c0 2.272 1.171 4.286 2.915 5.453-1.092-0.030-2.108-0.326-2.996-0.825l0.033 0.017v0.072c0.005 3.163 2.238 5.804 5.213 6.437l0.043 0.008c-0.495 0.137-1.063 0.216-1.65 0.216-0.025 0-0.049-0-0.074-0l0.004 0c-0.419 0-0.843-0.024-1.242-0.112 0.85 2.598 3.262 4.509 6.13 4.57-2.215 1.746-5.046 2.8-8.123 2.8-0.004 0-0.008 0-0.012 0h0.001c-0.013 0-0.028 0-0.044 0-0.538 0-1.068-0.033-1.588-0.098l0.062 0.006c2.826 1.846 6.286 2.944 10.003 2.944 0.022 0 0.043-0 0.065-0h-0.003c12.072 0 18.672-10 18.672-18.667q0-0.435-0.024-0.848c1.299-0.938 2.39-2.068 3.258-3.361l0.030-0.047z"></path>
</symbol>
<symbol id="icon-instagram" viewBox="0 0 32 32">
<path d="M31.968 9.408c-0.074-1.701-0.349-2.869-0.742-3.882-0.425-1.111-1.055-2.058-1.85-2.837l-0.001-0.001c-0.779-0.793-1.724-1.421-2.778-1.827l-0.054-0.018c-1.019-0.394-2.181-0.667-3.882-0.742-1.712-0.082-2.256-0.101-6.602-0.101-4.344 0-4.888 0.019-6.595 0.094-1.699 0.074-2.869 0.349-3.88 0.742-1.112 0.425-2.059 1.055-2.839 1.85l-0.001 0.001c-0.792 0.779-1.419 1.724-1.825 2.778l-0.018 0.054c-0.395 1.019-0.669 2.181-0.744 3.882-0.082 1.712-0.101 2.256-0.101 6.602 0 4.344 0.019 4.888 0.094 6.595 0.075 1.701 0.35 2.869 0.744 3.882 0.425 1.111 1.054 2.058 1.848 2.837l0.001 0.001c0.8 0.813 1.77 1.443 2.832 1.843 1.019 0.395 2.182 0.67 3.882 0.744 1.707 0.075 2.251 0.094 6.595 0.094 4.346 0 4.89-0.019 6.595-0.094 1.701-0.074 2.869-0.349 3.882-0.742 2.157-0.851 3.832-2.526 4.664-4.628l0.019-0.055c0.394-1.019 0.669-2.182 0.744-3.882 0.075-1.707 0.093-2.251 0.093-6.595s-0.006-4.888-0.080-6.595zM29.090 22.474c-0.070 1.563-0.333 2.406-0.55 2.97-0.552 1.399-1.64 2.486-3.004 3.024l-0.036 0.013c-0.56 0.219-1.411 0.482-2.968 0.55-1.688 0.075-2.194 0.094-6.464 0.094s-4.782-0.019-6.464-0.094c-1.563-0.069-2.406-0.331-2.97-0.55-0.72-0.27-1.334-0.677-1.836-1.193l-0.001-0.001c-0.517-0.503-0.924-1.117-1.184-1.803l-0.011-0.034c-0.218-0.563-0.48-1.413-0.549-2.97-0.075-1.688-0.094-2.195-0.094-6.464s0.019-4.784 0.094-6.464c0.069-1.563 0.331-2.406 0.549-2.97 0.268-0.722 0.677-1.337 1.197-1.837l0.002-0.002c0.504-0.517 1.119-0.924 1.806-1.182l0.034-0.011c0.56-0.219 1.411-0.48 2.968-0.55 1.688-0.074 2.195-0.093 6.464-0.093 4.275 0 4.782 0.019 6.464 0.093 1.563 0.069 2.406 0.331 2.97 0.55 0.693 0.256 1.325 0.662 1.837 1.194 0.531 0.52 0.938 1.144 1.195 1.84 0.218 0.56 0.48 1.411 0.549 2.968 0.075 1.688 0.094 2.194 0.094 6.464s-0.019 4.768-0.094 6.458z"></path>
<path d="M16.059 7.782c-4.539 0.003-8.217 3.682-8.219 8.221v0c0.091 4.471 3.737 8.060 8.221 8.060s8.13-3.589 8.221-8.052l0-0.009c-0.002-4.54-3.681-8.219-8.221-8.221h-0zM16.061 21.334c-2.945-0-5.332-2.388-5.332-5.333s2.388-5.333 5.333-5.333c0 0 0.001 0 0.001 0h-0c2.946 0 5.334 2.388 5.334 5.334s-2.388 5.334-5.334 5.334v0zM26.525 7.458c0 1.060-0.86 1.92-1.92 1.92s-1.92-0.86-1.92-1.92v0c0-1.060 0.86-1.92 1.92-1.92s1.92 0.86 1.92 1.92v0z"></path>
</symbol>
</defs>
</svg>
